<svg width="97" height="21" viewBox="0 0 97 21" fill="none" xmlns="http://www.w3.org/2000/svg">
<path d="M2.63695e-05 17.328L3.48003 0.576003H7.82403L11.328 17.328H8.11203L7.65603 14.88H3.55203L3.09603 17.328H2.63695e-05ZM4.03203 12.36H7.20003L5.66403 3.912H5.61603L4.03203 12.36ZM12.1821 17.328V0.144002H15.2061V17.328H12.1821ZM22.7982 17.496C19.0062 17.496 16.4142 14.856 16.4142 10.92C16.4142 6.984 19.0062 4.344 22.7982 4.344C23.4222 4.344 24.2142 4.416 25.0062 4.68V7.776C24.3342 7.44 23.6622 7.272 22.9662 7.272C20.9502 7.272 19.5822 8.712 19.5822 10.92C19.5822 13.128 20.9502 14.568 22.9662 14.568C23.6622 14.568 24.3342 14.4 25.0062 14.064V17.16C24.2142 17.424 23.4222 17.496 22.7982 17.496ZM26.2446 17.328V0.144002H29.2686V5.424H29.3166C29.9886 4.728 30.9246 4.368 32.0526 4.368C34.4766 4.368 36.0846 6.024 36.0846 8.64V17.328H33.0846V9.264C33.0846 8.016 32.3406 7.248 31.1886 7.248C30.0126 7.248 29.2686 8.016 29.2686 9.264V17.328H26.2446ZM44.1147 17.448C39.8907 17.448 37.2267 14.832 37.2267 10.92C37.2267 6.984 39.7947 4.368 43.5627 4.368C47.4027 4.368 50.0907 6.984 49.2267 11.976H40.4187C40.8507 13.632 42.2187 14.664 44.2827 14.664C45.5307 14.664 47.0667 14.28 48.1707 13.344V16.56C47.0667 17.16 45.5547 17.448 44.1147 17.448ZM40.4427 9.456H46.2987C46.2267 7.896 45.0507 7.032 43.5387 7.032C42.0027 7.032 40.8507 7.944 40.4427 9.456ZM50.6196 17.328V4.464H53.4276V5.52H53.4756C54.0036 4.776 54.8676 4.344 55.9956 4.344C56.2596 4.344 56.5716 4.368 56.9316 4.44V7.68C56.4996 7.488 55.9716 7.344 55.4436 7.344C54.4356 7.344 53.6436 7.872 53.6436 9.168V17.328H50.6196ZM57.955 17.328V4.464H60.979V17.328H57.955ZM57.667 1.68C57.667 0.624002 58.411 1.43051e-06 59.467 1.43051e-06C60.547 1.43051e-06 61.267 0.624002 61.267 1.68C61.267 2.736 60.523 3.384 59.467 3.384C58.435 3.384 57.667 2.736 57.667 1.68ZM62.5962 17.328V4.464H65.4042V5.544H65.4522C66.2202 4.752 67.1802 4.368 68.3562 4.368C70.8282 4.368 72.4602 6.024 72.4602 8.64V17.328H69.4362V9.264C69.4362 8.016 68.6922 7.248 67.5402 7.248C66.3882 7.248 65.6202 8.016 65.6202 9.264V17.328H62.5962ZM79.2897 20.688C77.7537 20.688 76.3857 20.4 75.2097 19.968V16.8C76.3617 17.472 77.7537 17.952 79.2657 17.952C81.3057 17.952 82.5777 17.112 82.5777 15.408V15.072H82.5297C81.5697 15.912 80.3937 16.224 79.1937 16.224C75.9297 16.224 73.6257 13.944 73.6257 10.368C73.6257 6.744 75.9297 4.368 79.3137 4.368C80.6817 4.368 81.8817 4.776 82.7697 5.568H82.8177V4.464H85.6017V15.12C85.6017 19.128 82.8417 20.688 79.2897 20.688ZM76.7937 10.416C76.7937 12.24 77.8497 13.608 79.7457 13.608C81.5457 13.608 82.6977 12.408 82.6977 10.44C82.6977 8.496 81.5457 7.248 79.7217 7.248C77.8257 7.248 76.7937 8.616 76.7937 10.416ZM90.6861 17.448C88.3821 17.448 86.7021 15.816 86.7021 13.272C86.7021 10.704 88.3821 9.072 90.6861 9.072C91.6221 9.072 92.4381 9.336 93.0861 9.816H93.1341V9.24C93.1341 7.8 92.2701 6.984 90.7101 6.984C89.6301 6.984 88.6461 7.368 87.9261 7.776V4.92C88.9341 4.512 89.9661 4.32 91.0221 4.32C94.2621 4.32 96.1581 6.12 96.1581 9.192V17.328H93.3741V16.536H93.3261C92.6781 17.112 91.7421 17.448 90.6861 17.448ZM89.8221 13.2C89.8221 14.304 90.5661 15.072 91.5741 15.072C92.5581 15.072 93.2541 14.328 93.2541 13.2C93.2541 12.072 92.5581 11.328 91.5741 11.328C90.5661 11.328 89.8221 12.096 89.8221 13.2Z" fill="white"/>
</svg>
